<svg width="200" height="200" viewBox="0 0 200 200" fill="none" xmlns="http://www.w3.org/2000/svg">
<g clip-path="url(#clip0_3_4)">
<path d="M100 0C80.223 0 60.8902 5.86455 44.4462 16.8521C28.0023 27.8395 15.1858 43.4565 7.61746 61.728C0.0491395 79.9996 -1.93108 100.105 1.92722 119.502C5.78551 138.899 15.309 156.716 29.2935 170.701C43.2779 184.685 61.0951 194.209 80.4921 198.067C99.8891 201.925 119.995 199.945 138.266 192.377C156.538 184.808 172.155 171.992 183.142 155.548C194.13 139.104 199.994 119.771 199.994 99.9941C199.994 73.474 189.459 48.0401 170.707 29.2876C151.954 10.5351 126.52 0 100 0ZM148.161 18.1342C162.095 26.3388 173.712 37.9555 181.917 51.89L163.851 64.3283L163.044 62.9641C156.725 52.2569 147.794 43.3265 137.087 37.0076L135.712 36.2004L148.161 18.1342ZM158.121 83.3836C157.689 81.8373 157.166 80.291 156.608 78.8357L158.143 78.2559C158.723 79.8135 159.28 81.4053 159.701 82.9971L158.121 83.3836ZM160.872 87.7949C161.202 89.4243 161.463 91.0667 161.656 92.7178L160.031 92.9111C159.837 91.308 159.587 89.6936 159.269 88.1133L160.872 87.7949ZM158.018 116.98L159.587 117.435C159.132 119.027 158.587 120.619 157.996 122.165L156.472 121.573C156.984 120.073 157.507 118.527 157.962 116.98H158.018ZM159.155 112.262C159.485 110.682 159.746 109.067 159.951 107.464L161.566 107.669C161.37 109.321 161.101 110.964 160.758 112.592L159.155 112.262ZM160.349 102.621C160.349 101.757 160.406 100.87 160.406 99.9943V97.7205H162.043V99.9943C162.043 100.745 162.043 101.802 161.986 102.689L160.349 102.621ZM100 154.681C89.1839 154.681 78.6107 151.474 69.6174 145.465C60.6242 139.456 53.6148 130.915 49.4757 120.922C45.3365 110.929 44.2536 99.9334 46.3637 89.3251C48.4738 78.7169 53.6823 68.9726 61.3304 61.3244C68.9786 53.6763 78.7229 48.4679 89.3312 46.3578C99.9395 44.2477 110.935 45.3307 120.928 49.4699C130.921 53.6091 139.462 60.6185 145.471 69.6118C151.48 78.605 154.687 89.1782 154.687 99.9943C154.689 107.176 153.275 114.288 150.527 120.924C147.78 127.56 143.751 133.589 138.673 138.667C133.594 143.746 127.565 147.774 120.93 150.522C114.294 153.269 107.182 154.683 100 154.681ZM150.958 135.353C150.014 136.718 149.002 138.048 147.945 139.333L146.671 138.298C147.706 137.047 148.684 135.74 149.605 134.421L150.958 135.353ZM144.614 143.062C143.477 144.256 142.26 145.415 141.01 146.473L139.929 145.245C141.142 144.171 142.314 143.052 143.443 141.891L144.614 143.062ZM119.498 158.888C117.92 159.415 116.319 159.874 114.701 160.264L114.314 158.672C115.887 158.286 117.446 157.842 118.987 157.342L119.498 158.888ZM109.812 161.253C108.175 161.503 106.503 161.708 104.855 161.833L104.718 160.196C106.333 160.071 107.959 159.877 109.55 159.627L109.812 161.253ZM99.875 160.378V162.026C98.2148 162.026 96.5322 161.946 94.8951 161.81L95.0201 160.184C96.6119 160.309 98.249 160.378 99.875 160.378ZM90.1881 159.593L89.9268 161.207C88.2846 160.939 86.6537 160.605 85.0379 160.207L85.4244 158.615C86.9951 159.003 88.5804 159.329 90.1768 159.593H90.1881ZM63.652 148.223L62.6627 149.542C61.3326 148.542 60.0363 147.473 58.7971 146.37L59.934 145.154C61.0937 146.211 62.3559 147.246 63.652 148.212V148.223ZM56.3867 141.777L55.25 142.914C54.1129 141.72 52.976 140.47 51.9414 139.185L53.2148 138.15C54.1926 139.367 55.2727 140.595 56.3867 141.766V141.777ZM50.2586 134.239L48.9057 135.171C47.9594 133.801 47.0681 132.394 46.2338 130.953L47.6551 130.135C48.4623 131.522 49.3377 132.966 50.2586 134.228V134.239ZM40.0262 92.6725C39.8305 94.2811 39.6977 95.8968 39.6281 97.5158L37.991 97.4475C38.061 95.7832 38.1937 94.1221 38.3889 92.4678L40.0262 92.6725ZM39.1961 87.5447C39.526 85.9303 39.9238 84.2932 40.39 82.7014L41.959 83.1563C41.5156 84.7023 41.1176 86.2941 40.8221 87.8744L39.1961 87.5447ZM39.6281 102.325C39.6852 103.939 39.8215 105.565 40.0033 107.168L38.3775 107.362C38.1796 105.708 38.0507 104.046 37.991 102.382L39.6281 102.325ZM40.7652 111.966C41.0864 113.553 41.4656 115.126 41.902 116.685L40.3332 117.139C39.8783 115.548 39.4691 113.911 39.1961 112.285L40.7652 111.966ZM43.4484 121.289C44.0198 122.808 44.6531 124.302 45.3469 125.769L43.8689 126.474C43.1542 124.966 42.5018 123.43 41.9135 121.869L43.4484 121.289ZM41.959 77.9033C42.5502 76.357 43.2096 74.8107 43.9258 73.3555L45.4039 74.0605C44.7043 75.5222 44.067 77.0129 43.4937 78.5285L41.959 77.9033ZM46.2453 68.91C47.0754 67.4662 47.9734 66.0564 48.9172 64.692L50.2701 65.6242C49.3467 66.9563 48.4781 68.3256 47.6666 69.7287L46.2453 68.91ZM51.9299 60.7014C52.976 59.4279 54.0787 58.1658 55.2385 56.9721L56.3754 58.109C55.2536 59.2839 54.1773 60.4966 53.1465 61.7473L51.9299 60.7014ZM58.8426 53.5158C60.0818 52.3789 61.3895 51.3443 62.7082 50.3551L63.6859 51.6625C62.3905 52.6384 61.135 53.6663 59.9226 54.7437L58.8426 53.5158ZM85.1629 39.7359C86.766 39.3494 88.4144 39.0084 90.0516 38.7469L90.3133 40.3613C88.7215 40.6229 87.1184 40.9412 85.5496 41.3277L85.1629 39.7359ZM95.0088 38.1559C96.669 38.0189 98.3341 37.9506 100 37.9512H100.262V39.5885H99.9887C98.3742 39.5885 96.7369 39.6566 95.1453 39.7818L95.0088 38.1559ZM105.116 39.8043L105.253 38.167C106.913 38.3148 108.573 38.5195 110.198 38.7924L109.937 40.4068C108.368 40.1682 106.731 39.9635 105.116 39.827L105.116 39.8043ZM114.689 41.3961L115.087 39.8043C116.702 40.2021 118.305 40.6797 119.885 41.2027L119.351 42.7604C117.814 42.2547 116.259 41.8071 114.689 41.4186V41.3961ZM140.202 54.9484L141.339 53.7205C142.579 54.8572 143.784 55.9943 144.932 57.1312L143.738 58.2682C142.579 57.1541 141.408 56.017 140.202 54.9484ZM146.91 61.9746L148.184 60.94C149.229 62.2368 150.227 63.5717 151.174 64.942L149.81 65.8744C148.911 64.5443 147.922 63.2367 146.91 61.9746ZM154.494 126.042L155.972 126.746C155.256 128.248 154.479 129.72 153.641 131.158L152.22 130.339C153.027 128.941 153.846 127.497 154.494 126.042ZM154.653 74.2992C153.971 72.8324 153.209 71.3773 152.379 69.9789L153.8 69.1715C154.635 70.6053 155.394 72.0816 156.074 73.5943L154.653 74.2992ZM133.381 47.6949C134.779 48.593 136.155 49.548 137.474 50.5484L136.485 51.8561C135.194 50.8722 133.863 49.9429 132.494 49.0705L133.381 47.6949ZM124.581 43.0221C126.093 43.6701 127.605 44.3977 129.129 45.1822L128.356 46.6262C126.934 45.8645 125.456 45.1594 123.978 44.5227L124.581 43.0221ZM100.034 5.03672C108.089 5.03276 116.111 6.04892 123.91 8.06094L119.942 29.6629L118.396 29.265C106.36 26.1573 93.7313 26.1573 81.6951 29.265L80.149 29.6629L76.1697 8.06094C83.9542 6.05392 91.9609 5.03781 100 5.03672H100.034ZM80.399 41.1461L80.9221 42.7037C79.3871 43.2154 77.8523 43.8404 76.3742 44.4318L75.7262 42.9197C77.2156 42.2602 78.8074 41.6689 80.3648 41.1461H80.399ZM71.2238 45.0572L71.9855 46.5578C70.547 47.3111 69.1399 48.1229 67.7676 48.991L66.8922 47.6039C68.2564 46.6717 69.7117 45.8303 71.1898 45.057L71.2238 45.0572ZM51.8957 18.1342L64.4023 36.2004L63.0266 37.0076C52.3226 43.3268 43.396 52.2573 37.0814 62.9641L36.2629 64.3283L18.1969 51.8902C26.3908 37.9706 37.9813 26.3565 51.8844 18.1344L51.8957 18.1342ZM5.0541 99.9943C5.04517 91.9397 6.06134 83.9166 8.07812 76.1186L29.6801 80.0863L29.2822 81.6326C26.1745 93.6726 26.1745 106.305 29.2822 118.345L29.6801 119.879L8.07812 123.859C6.05865 116.065 5.03862 108.046 5.04258 99.9943H5.0541ZM51.8959 181.854C37.9678 173.641 26.353 162.026 18.14 148.098L36.2063 135.649L37.0135 137.025C43.3327 147.729 52.2632 156.655 62.9699 162.97L64.3455 163.788L51.8959 181.854ZM71.0877 154.863C69.6209 154.09 68.1658 153.249 66.7787 152.362L67.6541 150.975C69.0199 151.851 70.4234 152.667 71.8607 153.419L71.0877 154.863ZM76.2381 155.511C77.7297 156.149 79.2469 156.726 80.7857 157.239L80.2629 158.797C78.7053 158.274 77.1248 157.66 75.6014 157.012L76.2381 155.511ZM100.012 194.941C91.9569 194.949 83.9339 193.933 76.1357 191.916L80.115 170.314L81.6613 170.712C93.6994 173.805 106.324 173.805 118.362 170.712L119.908 170.314L123.876 191.916C116.078 193.938 108.055 194.958 100 194.952L100.012 194.941ZM124.194 157.114L123.546 155.614C125.024 154.977 126.502 154.284 127.946 153.533L128.708 154.988C127.231 155.765 125.721 156.478 124.183 157.126L124.194 157.114ZM132.153 151.111C133.517 150.247 134.859 149.315 136.155 148.349L137.144 149.667C135.808 150.661 134.435 151.606 133.029 152.498L132.153 151.111ZM148.07 181.809L135.655 163.8L137.019 162.981C147.716 156.665 156.635 147.738 162.941 137.036L163.749 135.66L181.815 148.11C173.634 162.025 162.054 173.636 148.161 181.854L148.07 181.809ZM170.309 119.834L170.718 118.299C173.811 106.257 173.811 93.6291 170.718 81.5871L170.309 80.041L191.911 76.073C195.945 91.7346 195.945 108.163 191.911 123.825L170.309 119.834Z" fill="#888888"/>
<path d="M102.88 131L96.64 113.32H75.44L69.28 131H62L82.8 73.64H89.52L110.24 131H102.88ZM88.64 89.64C88.5333 89.2133 88.2933 88.44 87.92 87.32C87.6 86.2 87.2533 85.0533 86.88 83.88C86.56 82.6533 86.2933 81.72 86.08 81.08C85.8133 82.1467 85.52 83.24 85.2 84.36C84.9333 85.4267 84.6667 86.4133 84.4 87.32C84.1333 88.2267 83.8933 89 83.68 89.64L77.76 106.92H94.56L88.64 89.64ZM133.079 131H113.319V126.84L119.639 125.32V79.64L113.319 78.04V73.88H133.079V78.04L126.759 79.64V125.32L133.079 126.84V131Z" fill="#888888"/>
</g>
<defs>
<clipPath id="clip0_3_4">
<rect width="200" height="200" fill="white"/>
</clipPath>
</defs>
</svg>
