<svg width="2474" height="2500" viewBox="0 0 2474 2500" fill="none" xmlns="http://www.w3.org/2000/svg">
<path d="M2414.98 1188.79C2442.07 1249.22 2459.26 1313.82 2466.29 1379.71C2473.06 1445.61 2469.68 1512.29 2455.61 1577.15C2441.81 1642.01 2417.84 1704.26 2384.5 1761.56C2362.62 1799.85 2336.84 1835.8 2307.14 1868.88C2277.71 1901.7 2244.89 1931.39 2209.21 1957.44C2173.26 1983.49 2134.97 2005.37 2094.34 2023.34C2053.97 2041.05 2011.77 2054.59 1968.53 2063.45C1948.22 2126.48 1918 2186.13 1878.93 2239.79C1840.12 2293.45 1792.98 2340.59 1739.32 2379.4C1685.66 2418.47 1626.27 2448.69 1563.24 2469C1500.21 2489.58 1434.31 2499.74 1367.89 2499.74C1323.87 2500 1279.59 2495.31 1236.35 2486.46C1193.37 2477.34 1151.17 2463.53 1110.8 2445.56C1070.43 2427.59 1032.14 2405.19 996.455 2379.14C961.031 2353.09 928.212 2323.14 899.039 2290.06C833.921 2304.13 767.241 2307.51 701.342 2300.74C635.442 2293.71 570.846 2276.52 510.156 2249.43C449.727 2222.6 393.725 2186.13 344.496 2141.59C295.267 2097.05 253.331 2044.96 220.252 1987.65C198.112 1949.36 179.879 1908.99 166.074 1867.06C152.269 1825.12 143.152 1781.88 138.464 1737.86C133.775 1694.1 134.036 1649.82 138.724 1605.8C143.413 1562.04 153.05 1518.81 166.855 1476.87C122.575 1427.64 86.1092 1371.64 59.0202 1311.21C32.1917 1250.52 14.7401 1186.18 7.96789 1120.29C0.935171 1054.39 4.58176 987.706 18.3867 922.849C32.1917 857.991 56.155 795.739 89.4953 738.435C111.375 700.146 137.161 663.94 166.595 631.121C196.028 598.302 229.108 568.608 264.792 542.561C300.477 516.514 339.026 494.374 379.399 476.662C420.033 458.689 462.229 445.405 505.467 436.549C525.784 373.255 555.999 313.867 594.809 260.21C633.88 206.553 681.025 159.408 734.682 120.338C788.339 81.5274 847.726 51.3128 910.76 30.7356C973.794 10.4189 1039.69 1.58101e-05 1106.11 0.260487C1150.13 1.58101e-05 1194.41 4.42802 1237.65 13.5445C1280.89 22.661 1323.09 36.2055 1363.46 54.178C1403.83 72.4109 1442.12 94.551 1477.81 120.598C1513.49 146.906 1546.31 176.599 1575.48 209.679C1640.34 195.874 1707.02 192.488 1772.92 199.26C1838.82 206.033 1903.15 223.484 1963.84 250.313C2024.27 277.402 2080.27 313.607 2129.5 358.148C2178.73 402.428 2220.67 454.261 2253.75 511.825C2275.89 549.854 2294.12 590.227 2307.93 632.423C2321.73 674.359 2331.11 717.597 2335.54 761.617C2340.22 805.637 2340.22 849.917 2335.28 893.936C2330.59 937.956 2320.95 981.194 2307.14 1023.13C2351.69 1072.36 2387.89 1128.1 2414.98 1188.79ZM1547.09 2300.74C1603.87 2277.3 1655.45 2242.65 1698.95 2199.16C1742.44 2155.66 1777.09 2104.08 1800.53 2047.04C1823.97 1990.26 1836.21 1929.31 1836.21 1867.84V1286.99C1836.04 1286.47 1835.87 1285.86 1835.69 1285.16C1835.52 1284.64 1835.26 1284.12 1834.91 1283.6C1834.56 1283.08 1834.13 1282.65 1833.61 1282.3C1833.09 1281.78 1832.57 1281.43 1832.05 1281.26L1621.85 1159.88V1861.59C1621.85 1868.62 1620.8 1875.91 1618.98 1882.68C1617.16 1889.72 1614.55 1896.23 1610.91 1902.48C1607.26 1908.73 1603.09 1914.46 1597.88 1919.41C1592.82 1924.46 1587.13 1928.83 1580.95 1932.43L1083.19 2219.73C1079.02 2222.34 1071.99 2225.98 1068.35 2228.07C1088.92 2245.52 1111.32 2260.89 1134.77 2274.43C1158.47 2287.98 1182.95 2299.44 1208.48 2308.81C1234 2317.93 1260.31 2324.96 1286.88 2329.65C1313.71 2334.34 1340.8 2336.68 1367.89 2336.68C1429.36 2336.68 1490.31 2324.44 1547.09 2300.74ZM361.687 1906.39C392.683 1959.78 433.577 2006.15 482.285 2043.65C531.254 2081.16 586.734 2108.51 646.122 2124.4C705.509 2140.29 767.501 2144.46 828.451 2136.38C889.402 2128.31 948.008 2108.51 1001.4 2077.78L1504.63 1787.35L1505.94 1786.05C1506.28 1785.7 1506.54 1785.18 1506.72 1784.49C1507.06 1783.97 1507.33 1783.44 1507.5 1782.92V1538.08L900.081 1889.46C893.83 1893.1 887.318 1895.71 880.546 1897.79C873.513 1899.61 866.48 1900.4 859.187 1900.4C852.154 1900.4 845.122 1899.61 838.089 1897.79C831.317 1895.71 824.544 1893.1 818.293 1889.46L320.533 1601.9C316.105 1599.29 309.593 1595.38 305.947 1593.04C301.258 1619.87 298.914 1646.96 298.914 1674.05C298.914 1701.14 301.519 1728.22 306.207 1755.05C310.896 1781.62 318.189 1807.93 327.305 1833.45C336.682 1858.98 348.143 1883.47 361.687 1906.91V1906.39ZM230.931 820.223C200.195 873.62 180.4 932.486 172.325 993.436C164.25 1054.39 168.418 1116.12 184.307 1175.77C200.195 1235.15 227.545 1290.63 265.053 1339.6C302.561 1388.31 349.185 1429.2 402.321 1459.94L905.29 1750.63C905.811 1750.8 906.419 1750.97 907.114 1751.15H908.937C909.632 1751.15 910.239 1750.97 910.76 1750.63C911.281 1750.45 911.802 1750.19 912.323 1749.84L1123.3 1627.94L515.886 1277.35C509.895 1273.7 504.165 1269.27 498.956 1264.33C493.908 1259.26 489.532 1253.57 485.932 1247.4C482.546 1241.14 479.681 1234.63 477.857 1227.6C476.034 1220.83 474.992 1213.79 475.253 1206.5V614.972C449.727 624.349 424.982 635.81 401.539 649.354C378.097 663.159 355.957 678.787 335.119 696.239C314.542 713.69 295.267 732.965 277.816 753.803C260.364 774.38 244.996 796.781 231.452 820.223H230.931ZM1958.63 1222.39C1964.89 1226.04 1970.62 1230.2 1975.83 1235.41C1980.77 1240.36 1985.2 1246.09 1988.85 1252.34C1992.24 1258.6 1995.1 1265.37 1996.92 1272.14C1998.49 1279.17 1999.53 1286.21 1999.27 1293.5V1885.03C2082.88 1854.29 2155.81 1800.38 2209.73 1729.53C2263.91 1658.68 2296.47 1574.03 2304.02 1485.47C2311.57 1396.91 2293.86 1307.82 2252.71 1228.9C2211.55 1149.98 2148.78 1084.34 2071.68 1040.06L1568.71 749.375C1568.19 749.201 1567.58 749.028 1566.89 748.854H1565.06C1564.54 749.028 1563.93 749.201 1563.24 749.375C1562.72 749.549 1562.2 749.809 1561.68 750.156L1351.74 871.536L1959.16 1222.39H1958.63ZM2168.31 907.22H2168.05V907.481L2168.31 907.22ZM2168.05 906.96C2183.16 819.442 2173 729.319 2138.62 647.27C2104.5 565.222 2047.46 494.634 1974.52 443.582C1901.59 392.79 1815.64 363.617 1726.82 359.71C1637.73 356.064 1549.7 377.683 1472.6 421.963L969.627 712.388C969.106 712.735 968.672 713.169 968.324 713.69L967.282 715.253C967.109 715.774 966.935 716.382 966.761 717.077C966.588 717.598 966.501 718.205 966.501 718.9V961.659L1573.92 610.804C1580.17 607.158 1586.94 604.553 1593.71 602.469C1600.75 600.646 1607.78 599.865 1614.81 599.865C1622.11 599.865 1629.14 600.646 1636.17 602.469C1642.94 604.553 1649.46 607.158 1655.71 610.804L2153.47 898.364C2157.9 900.969 2164.41 904.616 2168.05 906.96ZM851.894 638.154C851.894 631.121 852.936 624.088 854.759 617.056C856.582 610.283 859.187 603.511 862.834 597.26C866.48 591.269 870.648 585.539 875.857 580.329C880.806 575.38 886.536 570.952 892.788 567.566L1390.55 280.267C1395.24 277.402 1401.75 273.755 1405.39 271.932C1337.15 214.889 1253.8 178.423 1165.5 167.222C1077.2 155.762 987.599 169.827 907.114 207.595C826.368 245.364 758.124 305.532 710.458 380.548C662.792 455.824 637.526 542.821 637.526 631.903V1212.75C637.7 1213.45 637.873 1214.06 638.047 1214.58C638.221 1215.1 638.481 1215.62 638.828 1216.14C639.176 1216.66 639.61 1217.18 640.131 1217.7C640.478 1218.05 640.999 1218.4 641.694 1218.74L851.894 1340.12V638.154ZM965.98 1405.76L1236.61 1562.04L1507.24 1405.76V1093.46L1236.87 937.174L966.241 1093.46L965.98 1405.76Z" fill="black"/>
</svg>
