<svg width="126" height="188" viewBox="0 0 126 188" fill="none" xmlns="http://www.w3.org/2000/svg">
<path d="M60.5391 90.8359L35.793 64.1367L35.6172 64.332C36.6719 73.2969 39.7188 77.8281 43.3906 81.8711C48.6445 87.5547 55.3633 90.4453 60.3633 91.0312L60.5391 90.8359ZM63.5078 97.3789C63.5273 97.6914 63.5664 98.0625 63.625 98.4922C63.6641 98.082 63.6836 97.7109 63.6836 97.3789H63.5078ZM60.3633 95.0742C55.3828 95.6602 48.6445 98.5508 43.3906 104.234C39.7188 108.277 36.6523 112.809 35.4414 121.969L35.6953 122.164L60.5391 95.2891L60.3633 95.0742ZM40.7734 87.5547L36.1445 92.75L40.7734 98.5313L46.0273 92.75L40.7734 87.5547ZM60.0117 93.1406C59.6992 93.1602 59.3086 93.1992 58.8789 93.2578C59.3086 93.3164 59.6797 93.3359 60.0117 93.3359V93.1406ZM113.195 0.25H12.8047C6.00781 0.25 0.5 6.1875 0.5 13.5117V174.508C0.5 181.832 6.00781 187.77 12.8047 187.77H113.195C119.992 187.77 125.5 181.832 125.5 174.508V13.5117C125.5 6.1875 119.992 0.25 113.195 0.25ZM26.5547 16.2266C33.2539 16.2266 38.1758 24.3906 42.4141 28.8437L42.5898 28.6484C42.0625 27.0859 41.8867 25.543 41.8867 23.7852C41.8867 22.0469 42.9414 16.4023 48.0586 16.4023C52.2969 16.4023 53.8789 20.2891 53.8789 22.0273C53.8789 24.5469 52.2969 27.457 49.6406 27.457C47.3555 27.457 46.4766 25.6992 46.4766 24.5469C46.4766 23.1992 46.8281 21.832 48.2344 21.832C49.4648 21.832 49.9922 22.8086 49.9922 24.1562C49.9922 24.5469 49.9922 24.9375 49.8164 25.3281C50.5195 25.3281 52.2773 24.7422 52.2773 22.0273C52.2773 19.7031 50.3437 17.9453 48.2344 17.9453C45.9492 17.9453 43.4688 19.3125 43.4688 24.1562C43.4688 28.4336 45.2266 33.2773 52.8047 33.2773C55.4414 33.2773 62.3164 31.3437 62.3164 22.7891C62.3164 18.5117 60.3828 17.5547 58.8008 17.5547C57.5703 17.5547 56.6914 18.3359 56.6914 19.8789C56.6914 20.6602 57.2188 21.4219 57.9219 21.6172C57.9219 20.8359 58.2734 20.0742 58.9766 20.0742C59.6797 20.0742 60.207 21.0508 60.207 21.8125C60.207 22.5937 59.6797 23.9414 58.2734 23.9414C57.2187 23.9414 55.2852 22.7695 55.2852 20.25C55.2852 17.1445 57.2187 16.168 58.8008 16.168C61.0859 16.168 63.0391 17.5352 63.6445 20.6406H63.8203C64.4453 17.5352 66.3789 16.168 68.4883 16.168C70.2461 16.168 72.1992 17.1445 72.1992 20.25C72.1992 22.7695 70.2656 23.7461 69.2109 23.7461C67.8047 23.7461 67.2773 22.5742 67.2773 21.8125C67.2773 21.0312 67.8047 20.0742 68.5078 20.0742C69.0352 20.0742 69.5625 20.8555 69.5625 21.6172C70.2656 21.4219 70.793 20.6406 70.793 19.6836C70.793 18.3164 69.7383 17.5547 68.5078 17.5547C67.1016 17.5547 65.168 18.5312 65.168 22.7891C65.168 31.3242 72.043 33.2773 74.5039 33.2773C82.2578 33.2773 84.0156 28.4141 84.0156 23.9609C84.0156 19.293 81.5547 17.9453 79.25 17.9453C77.1406 17.9453 75.207 19.7031 75.207 22.0273C75.207 24.7422 76.7891 25.3281 77.4922 25.3281C77.4922 24.9375 77.3164 24.3516 77.4922 24.1562C77.4922 22.7891 78.0195 21.832 79.25 21.832C80.4805 21.832 81.0078 23.1992 81.0078 24.5469C81.0078 25.7187 80.1289 27.457 77.8438 27.457C75.207 27.457 73.6055 24.5469 73.6055 22.0273C73.6055 20.0938 75.1875 16.4023 79.4258 16.4023C84.543 16.4023 85.5977 22.0273 85.5977 23.7852C85.5977 25.543 85.4219 27.0859 84.7188 28.6484L84.8945 28.8437C89.1328 24.3711 94.2305 16.2266 100.754 16.2266C106.926 16.2266 107.805 21.8516 107.805 23.4141C107.805 25.3477 107.102 29.8203 101.809 29.8203C99.6992 29.8203 97.9414 27.8672 97.9414 25.7383C97.9414 23.4141 99.3477 22.4375 100.402 22.4375C101.457 22.4375 102.512 23.0234 102.512 24.5664C102.512 26.1289 101.633 26.3242 101.457 26.5195C101.633 27.1055 102.16 27.4961 102.688 27.4961C103.566 27.4961 106.027 27.3008 106.027 23.4141C106.027 19.918 103.742 17.9844 100.91 17.9844C96.3203 17.9844 93.332 21.4805 84.875 31.1875L85.0508 31.3828C86.457 30.7969 88.0391 30.2109 88.918 30.2109C91.7305 30.2109 95.2656 32.1641 95.2656 37.5937C95.2656 42.8281 92.1016 44.9766 88.918 44.9766C85.7539 44.9766 83.8008 42.0664 83.8008 39.9375C83.8008 37.8086 84.8555 36.6367 86.4375 36.6367C87.8437 36.6367 88.3711 37.8086 88.3711 38.7656C88.3711 39.7422 88.0195 41.0898 86.2617 40.8945C86.6133 41.8711 87.3164 43.0234 88.8984 43.0234C91.3594 43.0234 93.6641 41.0898 93.6641 37.5937C93.6641 33.9023 91.5547 31.9687 89.0742 31.9687C88.1953 31.9687 86.6133 32.3594 84.8359 33.1406C82.9023 33.9219 77.7852 35.2695 74.4453 35.2695C71.2812 35.2695 65.4609 33.1406 63.7812 26.5391H63.6836C61.9258 33.1406 56.1055 35.4648 52.7656 35.4648C49.6016 35.4648 44.4844 33.9023 42.5508 33.1406C40.793 32.3594 39.2109 31.9687 38.3125 31.9687C35.8516 31.9687 33.7227 33.9023 33.7227 37.5937C33.7227 41.0898 36.0078 43.0234 38.3125 43.0234C40.0703 43.0234 40.7734 41.8516 41.125 40.8945C39.3672 41.0898 39.0156 39.7227 39.0156 38.7656C39.0156 37.7891 39.543 36.6367 40.9492 36.6367C42.5313 36.6367 43.5859 37.8086 43.5859 39.9375C43.5859 42.0664 41.6523 44.9766 38.293 44.9766C35.3047 44.9766 32.1211 42.8477 32.1211 37.5937C32.1211 32.1641 35.4609 30.2109 38.293 30.2109C39.3477 30.2109 40.9297 30.7969 42.1797 31.3828L42.3555 31.1875C34.0742 21.4805 31.0859 17.9844 26.4961 17.9844C23.6836 17.9844 21.3789 19.9375 21.3789 23.4141C21.3789 27.3008 23.8398 27.4961 24.7188 27.4961C25.2461 27.4961 25.7734 27.1055 25.9492 26.5195C25.5977 26.3242 24.8945 26.1289 24.8945 24.5664C24.8945 23.2187 25.9492 22.4375 27.0039 22.4375C28.0586 22.4375 29.4648 23.4141 29.4648 25.7383C29.4648 27.8672 27.707 29.8203 25.4023 29.8203C20.2852 29.8203 19.582 25.3477 19.582 23.4141C19.6797 21.8516 20.3828 16.2266 26.5547 16.2266ZM104.836 53.2188C105.305 53.375 105.598 53.4336 105.773 53.4336L106.125 53.5117C106.535 53.6094 106.555 53.7852 106.281 54.0586C105.676 54.7227 105.031 55.4453 104.738 55.7969C104.426 56.1875 103.957 56.5195 103.566 56.6953C103.547 58.5508 104.738 60.9531 108.41 64.957L108.488 64.8984C108 63.7266 107.844 62.3398 107.844 61.6172C107.844 59.6055 108.859 56.207 112.551 56.207C113.879 56.207 115.598 56.6563 116.672 57.3203C117.082 57.5547 117.121 57.8672 116.555 57.8672C116.145 57.8672 114.641 57.9063 113.762 58.3555C113.313 58.5703 113.234 58.707 113.703 59.0781C114.113 59.4688 115.031 60.8555 115.207 61.1875C115.422 61.5977 115.422 61.8711 114.895 61.6758C114.523 61.5 113.605 61.3633 113.137 61.4023C110.91 61.6172 109.289 63.0234 109.289 64.957C109.289 65.582 109.602 65.9727 110.109 66.6172C111.809 68.8242 113.156 71.3437 113.156 74.4297C113.156 77.9062 110.949 81.9102 106.633 81.9102C104.797 81.9102 103.215 80.7969 103.215 79.2539C103.215 78.2773 103.898 77.5547 104.68 77.4766C105.012 77.4375 105.246 77.5352 105.383 77.7109C105.832 78.8828 106.613 79.8203 108.156 79.8203C110.461 79.8203 111.965 77.9453 111.965 75.0938C111.965 72.3789 110.734 69.957 108.742 67.4961C108.488 67.1836 108.215 66.7734 107.414 66.7734C102.551 66.7734 102.023 70.8359 102.023 71.207C102.023 71.7539 101.867 71.9492 101.398 71.5586C100.832 71.0313 100.52 70.0938 100.52 69.5078C100.52 69.1953 100.402 69.1172 100.051 69.1953C98.4492 69.5078 97.1602 70.8164 96.7109 71.8125C96.418 72.4375 96.2031 72.1836 96.2031 71.6758C96.2031 70.0938 96.5547 68.3555 97.6289 66.9102C98.6445 65.4844 100.344 64.5469 102.316 64.5469C103.781 64.5469 105.695 64.8984 107.336 65.7773L107.395 65.7383C104.113 62.6719 102.492 59.957 102.492 57.7891C102.492 57.5352 102.492 57.1836 102.551 56.793C101.906 56.832 101.301 56.5781 100.734 56.3438C100.109 56.0703 99.5625 55.8945 99.0352 55.8164C98.6641 55.7578 98.5664 55.582 98.8398 55.2695C99.0352 55.0938 99.1914 54.8789 99.4648 54.6055C99.9336 54.1953 99.8359 54.0781 99.2109 53.9023C98.6055 53.7656 96.7305 53.0039 95.9687 52.4375C95.0312 51.7148 93.918 50.7773 93.918 47.8672V47.8281C93.918 46.8516 94.0742 45.582 94.2891 45.0547C94.4844 44.5664 94.6016 44.6641 94.8164 45.0547C95.2266 45.7773 96.7305 46.5781 97.9414 46.6758C98.3125 46.7148 98.4102 46.6367 98.4102 46.1289C98.4102 44.8398 98.5273 43.7656 98.9766 42.7695C99.2695 42.0859 99.4844 41.4805 99.6602 40.9336C99.7773 40.5625 99.9727 40.5625 100.285 40.8555C100.656 41.2656 101.105 41.832 101.535 42.2812C102.316 43.1797 102.922 44.293 103.117 44.8398C103.313 45.3672 103.488 45.5625 103.937 45.1133C104.504 44.5664 105.129 43.6875 105.637 42.4375C105.793 42.0859 105.91 41.9102 106.574 42.7109C107.453 43.8242 107.98 45.6602 107.98 46.9688C107.98 49.2539 106.887 50.3672 104.797 52.418C104.406 52.9844 104.406 53.082 104.836 53.2188ZM108.41 120.68C104.719 124.684 103.547 127.086 103.566 128.941C103.977 129.117 104.426 129.469 104.738 129.84C105.012 130.191 105.676 130.914 106.281 131.578C106.555 131.852 106.535 132.027 106.125 132.125L105.773 132.203C105.578 132.203 105.305 132.262 104.836 132.418C104.387 132.555 104.387 132.652 104.836 133.141C106.906 135.191 108.02 136.305 108.02 138.59C108.02 139.898 107.492 141.754 106.613 142.848C105.949 143.648 105.832 143.473 105.676 143.121C105.168 141.871 104.543 141.012 103.977 140.445C103.527 139.996 103.352 140.211 103.156 140.719C102.961 141.266 102.375 142.379 101.574 143.277C101.125 143.727 100.695 144.273 100.324 144.703C100.012 145.016 99.8164 145.016 99.6992 144.625C99.5039 144.078 99.2891 143.473 99.0156 142.789C98.5664 141.773 98.4492 140.699 98.4492 139.43C98.4492 138.902 98.3516 138.844 97.9805 138.883C96.7891 138.98 95.2656 139.781 94.8555 140.504C94.6406 140.895 94.5039 140.992 94.3281 140.504C94.1133 139.977 93.957 138.707 93.957 137.73V137.691C93.957 134.781 95.0508 133.844 96.0078 133.121C96.7695 132.574 98.6445 131.812 99.25 131.656C99.875 131.48 99.9727 131.383 99.5039 130.953C99.2305 130.68 99.0547 130.465 98.8789 130.289C98.5859 129.977 98.6836 129.781 99.0742 129.742C99.6016 129.664 100.148 129.508 100.773 129.215C101.34 128.98 101.945 128.727 102.59 128.766C102.531 128.375 102.531 128.043 102.531 127.77C102.531 125.602 104.172 122.906 107.434 119.82L107.375 119.781C105.734 120.66 103.82 121.012 102.355 121.012C100.363 121.012 98.6641 120.074 97.668 118.648C96.5938 117.184 96.2422 115.465 96.2422 113.883C96.2422 113.375 96.4375 113.121 96.75 113.746C97.1992 114.742 98.4883 116.051 100.09 116.363C100.441 116.441 100.559 116.363 100.559 116.051C100.559 115.465 100.871 114.527 101.437 114C101.906 113.609 102.062 113.785 102.062 114.352C102.062 114.742 102.59 118.785 107.453 118.785C108.234 118.785 108.527 118.375 108.781 118.063C110.773 115.602 112.004 113.18 112.004 110.465C112.004 107.613 110.5 105.738 108.195 105.738C106.652 105.738 105.891 106.676 105.422 107.848C105.285 108.043 105.051 108.121 104.719 108.082C103.957 108.004 103.254 107.281 103.254 106.305C103.254 104.762 104.836 103.648 106.672 103.648C110.988 103.648 113.195 107.633 113.195 111.129C113.195 114.195 111.848 116.734 110.148 118.941C109.641 119.586 109.328 119.977 109.328 120.602C109.328 122.535 110.969 123.941 113.176 124.156C113.645 124.195 114.563 124.059 114.934 123.883C115.461 123.668 115.461 123.961 115.246 124.371C115.051 124.723 114.152 126.109 113.742 126.48C113.273 126.871 113.371 127.008 113.801 127.203C114.68 127.652 116.184 127.691 116.594 127.691C117.16 127.691 117.121 128.004 116.711 128.238C115.637 128.902 113.918 129.352 112.59 129.352C108.898 129.352 107.883 125.953 107.883 123.941C107.883 123.219 108.039 121.852 108.527 120.66L108.41 120.68ZM104.465 86.5586L107.453 83.2578L110.441 86.5586L107.473 89.8203L110.441 93.1211L113.41 89.8594L116.398 93.1602L113.41 96.4609L110.441 93.1992L107.473 96.4414L110.441 99.7031L107.453 103.004L104.465 99.7031L107.434 96.4414L104.465 93.1992L101.496 96.4609L98.5078 93.1602L101.496 89.8594L104.465 93.1211L107.434 89.8203L104.465 86.5586ZM86.0859 83.6094C79.2695 91.0312 70.9492 93.3359 67.9023 93.3359C70.9687 93.3359 79.2695 95.0742 86.0859 102.496C90.7148 108.277 93.8594 115.699 93.8594 126.012C84.5039 126.012 77.7656 122.535 72.5312 116.852C66.9062 110.582 64.2305 102.477 63.6445 98.4922C63.2734 102.477 61.0078 110.562 55.4023 116.852C50.1484 122.535 42.9023 126.012 33.5469 126.012C33.5469 115.699 36.6914 108.277 41.8477 102.496C47.4922 95.8359 55.1875 93.7656 58.918 93.2578C55.1875 92.8086 47.4922 90.25 41.8477 83.6094C36.6914 77.8281 33.5469 70.4062 33.5469 60.0937C42.9023 60.0937 50.168 63.5703 55.4023 69.2539C61.6133 76.1875 63.7031 85.3477 63.5273 88.707H63.7031C63.7031 85.3281 66.3203 76.1875 72.5312 69.2539C77.7852 63.5703 84.5039 60.0937 93.8594 60.0937C93.8594 70.4062 90.7148 77.8281 86.0859 83.6094ZM93.8594 92.7695L86.5937 100.191L79.7773 92.7695L86.5937 85.3477L93.8594 92.7695ZM56.9648 118.004L64.2305 110.484L70.9687 118.57L64.2305 125.992L56.9648 118.004ZM60.207 151.656C60.207 152.047 60.207 152.438 60.0312 152.828C59.3281 151.461 57.9219 149.527 55.793 148.355C53.5078 147.184 50.3242 146.422 50.3242 143.492C50.3242 141.949 51.3789 140.582 52.7852 140.582C56.4961 140.602 60.207 148.746 60.207 151.656ZM63.7227 132.242C66.7109 132.242 67.0625 136.324 67.0625 138.648C67.0625 141.168 65.1289 146.422 64.7773 148.551C64.4258 150.484 63.7227 155.934 63.7227 155.934C63.7227 155.934 63.0195 150.504 62.668 148.551C62.3164 146.422 60.207 140.973 60.207 138.648C60.207 136.324 60.7344 132.242 63.7227 132.242ZM74.3086 140.602C75.7148 140.602 76.7695 141.969 76.7695 143.512C76.7695 146.422 73.6055 147.203 71.3008 148.57C69.1914 149.547 67.7852 151.48 67.082 152.848C66.9063 152.457 66.9062 152.066 66.9062 151.676C66.9062 148.746 70.5977 140.602 74.3086 140.602ZM23.3125 132.398C22.8437 132.242 22.5508 132.184 22.375 132.184L22.0234 132.105C21.6133 132.008 21.5937 131.832 21.8672 131.559C22.4727 130.895 23.1172 130.172 23.4102 129.82C23.7227 129.43 24.1914 129.098 24.582 128.922C24.6016 127.066 23.4102 124.664 19.7383 120.66L19.6602 120.719C20.1484 121.891 20.3047 123.277 20.3047 124C20.3047 126.012 19.2891 129.41 15.5977 129.41C14.2695 129.41 12.5508 128.961 11.4766 128.297C11.0664 128.062 11.0273 127.75 11.5938 127.75C12.0039 127.75 13.5078 127.711 14.3867 127.262C14.8359 127.047 14.9141 126.91 14.4453 126.539C14.0352 126.148 13.1172 124.762 12.9414 124.43C12.7266 124.02 12.7266 123.746 13.2539 123.941C13.625 124.117 14.543 124.254 15.0117 124.215C17.2383 124 18.8594 122.594 18.8594 120.66C18.8594 120.035 18.5469 119.645 18.0391 119C16.3398 116.793 14.9922 114.273 14.9922 111.188C14.9922 107.711 17.1992 103.707 21.5156 103.707C23.3516 103.707 24.9336 104.82 24.9336 106.363C24.9336 107.34 24.25 108.063 23.4688 108.141C23.1367 108.18 22.9023 108.082 22.7656 107.906C22.3164 106.734 21.5352 105.797 19.9922 105.797C17.6875 105.797 16.1836 107.672 16.1836 110.523C16.1836 113.238 17.4141 115.66 19.4062 118.121C19.6602 118.434 19.9336 118.844 20.7344 118.844C25.5977 118.844 26.125 114.781 26.125 114.41C26.125 113.863 26.2812 113.668 26.75 114.059C27.3164 114.586 27.6289 115.523 27.6289 116.109C27.6289 116.422 27.7461 116.5 28.0977 116.422C29.6992 116.109 30.9883 114.801 31.4375 113.805C31.7305 113.18 31.9453 113.434 31.9453 113.941C31.9453 115.523 31.5938 117.262 30.5195 118.707C29.5039 120.133 27.8047 121.07 25.832 121.07C24.3672 121.07 22.4531 120.719 20.8125 119.84L20.7539 119.879C24.0352 122.945 25.6562 125.66 25.6562 127.828C25.6562 128.082 25.6563 128.434 25.5977 128.824C26.2422 128.785 26.8477 129.039 27.4141 129.273C28.0391 129.547 28.5859 129.723 29.1133 129.801C29.4844 129.859 29.582 130.035 29.3086 130.348C29.1133 130.523 28.957 130.738 28.6836 131.012C28.2148 131.422 28.3125 131.539 28.9375 131.715C29.543 131.852 31.418 132.613 32.1797 133.18C33.1172 133.902 34.2305 134.84 34.2305 137.75V137.789C34.2305 138.766 34.0742 140.035 33.8594 140.563C33.6641 141.051 33.5469 140.953 33.332 140.563C32.9219 139.84 31.418 139.039 30.207 138.941C29.8359 138.902 29.7383 138.98 29.7383 139.488C29.7383 140.777 29.6211 141.852 29.1719 142.848C28.8789 143.531 28.6641 144.137 28.4883 144.684C28.3711 145.074 28.1758 145.074 27.8633 144.762C27.4922 144.352 27.043 143.785 26.6133 143.336C25.832 142.437 25.2266 141.324 25.0313 140.777C24.8359 140.25 24.6602 140.055 24.2109 140.504C23.6445 141.051 23.0195 141.93 22.5117 143.18C22.3555 143.531 22.2383 143.707 21.5742 142.906C20.6953 141.793 20.168 139.957 20.168 138.648C20.168 136.363 21.2617 135.25 23.3516 133.199C23.7422 132.633 23.7422 132.535 23.3125 132.398ZM18.2344 64.957C21.9258 60.9531 23.0977 58.5508 23.0781 56.6953C22.668 56.5195 22.2188 56.168 21.9063 55.7969C21.6328 55.4453 20.9688 54.7227 20.3633 54.0586C20.0898 53.7852 20.1094 53.6094 20.5195 53.5117L20.8711 53.4336C21.0664 53.4336 21.3398 53.375 21.8086 53.2188C22.2578 53.082 22.2578 52.9844 21.8086 52.4961C19.7383 50.4453 18.625 49.332 18.625 47.0469C18.625 45.7383 19.1523 43.8828 20.0312 42.7891C20.6953 41.9883 20.8125 42.1641 20.9687 42.5156C21.4766 43.7656 22.1016 44.625 22.668 45.1914C23.1172 45.6406 23.293 45.4258 23.4883 44.918C23.6836 44.3711 24.2695 43.2578 25.0703 42.3594C25.5195 41.9102 25.9492 41.3633 26.3203 40.9336C26.6328 40.6211 26.8281 40.6211 26.9453 41.0117C27.1406 41.5586 27.3555 42.1641 27.6289 42.8477C28.0781 43.8438 28.1953 44.9375 28.1953 46.207C28.1953 46.7344 28.293 46.793 28.6641 46.7539C29.8555 46.6563 31.3789 45.8555 31.7891 45.1328C32.0039 44.7422 32.1406 44.6445 32.3164 45.1328C32.5312 45.6602 32.6875 46.9297 32.6875 47.9062V47.9453C32.6875 50.8555 31.5937 51.793 30.6367 52.5156C29.875 53.0625 28 53.8242 27.3945 53.9805C26.7695 54.1563 26.6719 54.2539 27.1406 54.6836C27.4141 54.957 27.5898 55.1719 27.7656 55.3477C28.0586 55.6602 27.9609 55.8555 27.5703 55.8945C27.043 55.9727 26.4961 56.1289 25.8711 56.4219C25.3047 56.6563 24.6992 56.9102 24.0547 56.8711C24.1133 57.2617 24.1133 57.5938 24.1133 57.8672C24.1133 60.0352 22.4727 62.7305 19.2109 65.8164L19.2695 65.8555C20.9102 64.9766 22.8242 64.625 24.2891 64.625C26.2812 64.625 27.9805 65.5625 28.9766 66.9883C30.0508 68.4531 30.4023 70.1719 30.4023 71.7539C30.4023 72.2617 30.207 72.5156 29.8945 71.8906C29.4453 70.8945 28.1562 69.5859 26.5547 69.2734C26.2031 69.1953 26.0859 69.2734 26.0859 69.5859C26.0859 70.1719 25.7734 71.1094 25.207 71.6367C24.7383 72.0273 24.582 71.8516 24.582 71.2852C24.582 70.8945 24.0547 66.8516 19.1914 66.8516C18.4102 66.8516 18.1172 67.2617 17.8633 67.5742C15.8711 70.0352 14.6406 72.457 14.6406 75.1719C14.6406 78.043 16.1445 79.8984 18.4492 79.8984C19.9922 79.8984 20.7539 78.9609 21.2227 77.7891C21.3594 77.5938 21.5938 77.5156 21.9258 77.5547C22.6875 77.6328 23.3906 78.3555 23.3906 79.332C23.3906 80.875 21.8086 81.9883 19.9727 81.9883C15.6563 81.9883 13.4492 78.0039 13.4492 74.5078C13.4492 71.4414 14.7969 68.9023 16.4961 66.6953C17.0039 66.0508 17.3164 65.6602 17.3164 65.0352C17.3164 63.1016 15.6758 61.6953 13.4687 61.4805C13 61.4414 12.082 61.5781 11.7109 61.7539C11.1836 61.9687 11.1836 61.6758 11.3984 61.2656C11.5938 60.9141 12.4922 59.5273 12.9023 59.1563C13.3711 58.7656 13.2734 58.6289 12.8437 58.4336C11.9648 57.9844 10.4609 57.9453 10.0508 57.9453C9.48437 57.9453 9.52344 57.6328 9.93359 57.3984C11.0078 56.7344 12.7266 56.2852 14.0547 56.2852C17.7461 56.2852 18.7617 59.6836 18.7617 61.6953C18.7617 62.418 18.6055 63.7852 18.1172 64.9766L18.2344 64.957ZM23.1953 99.6836L20.207 102.984L17.2188 99.6836L20.1875 96.4219L17.2188 93.1797L14.25 96.4414L11.2617 93.1406L14.25 89.8398L17.2188 93.1016L20.1875 89.8008L17.2188 86.5391L20.207 83.2383L23.1953 86.5391L20.2266 89.8203L23.1953 93.1211L26.1641 89.8594L29.1523 93.1602L26.1641 96.4609L23.1953 93.1992L20.2266 96.4023L23.1953 99.6836ZM34.0547 92.7695L40.793 85.3477L48.1367 92.7695L40.793 100.777L34.0547 92.7695ZM67.082 49.0391C67.082 51.3633 66.7305 55.4453 63.7422 55.4453C60.7539 55.4453 60.2266 51.3633 60.2266 49.0391C60.2266 46.7148 62.3359 41.2656 62.6875 39.1367C63.0391 37.2031 63.7422 31.7539 63.7422 31.7539C63.7422 31.7539 64.4453 37.1836 64.7969 39.1367C65.1484 41.2656 67.082 46.5195 67.082 49.0391ZM66.9062 36.0312C66.9062 35.6406 66.9063 35.25 67.082 34.8594C67.7852 36.2266 69.1914 38.1602 71.3008 39.1367C73.5859 40.5039 76.7695 41.2656 76.7695 44.1953C76.7695 45.7383 75.7148 47.1055 74.3086 47.1055C70.5977 47.1055 66.9062 38.9414 66.9062 36.0312ZM70.9492 67.5156L63.6836 75.6016L56.9453 67.5156L63.6836 60.0937L70.9492 67.5156ZM52.8047 47.1055C51.3984 47.1055 50.3438 45.7383 50.3438 44.1953C50.3438 41.2852 53.5078 40.5039 55.8125 39.332C57.9219 38.1602 59.3281 36.2266 60.0508 34.8594C60.2266 35.25 60.2266 35.6406 60.2266 36.0312C60.207 38.9414 56.4961 47.1055 52.8047 47.1055ZM11.2422 31.832L14.2109 35.0937L17.1797 31.793L14.2109 28.5313L17.1992 25.2305L20.1875 28.5313L17.2188 31.793L20.1875 35.0937L23.1562 31.832L26.1445 35.1328L23.1562 38.4336L20.1875 35.1719L17.2188 38.4141L20.1875 41.6758L17.1992 44.9766L14.1914 41.6562L17.1602 38.3945L14.1914 35.1523L11.2422 38.4141L8.25391 35.1133L11.2422 31.832ZM14.1914 157.691L17.1602 154.43L14.1914 151.187L11.2422 154.449L8.25391 151.148L11.2422 147.848L14.2109 151.109L17.1797 147.809L14.2109 144.547L17.1992 141.246L20.1875 144.547L17.2188 147.809L20.1875 151.109L23.1562 147.848L26.1445 151.148L23.1562 154.449L20.1875 151.187L17.2188 154.43L20.1875 157.691L17.1992 160.992L14.1914 157.691ZM100.734 171.461C94.2109 171.461 89.1133 163.297 84.875 158.844L84.6992 159.039C85.4023 160.602 85.5781 162.145 85.5781 163.902C85.5781 165.641 84.5234 171.285 79.4062 171.285C75.1875 171.285 73.5859 167.594 73.5859 165.66C73.5859 163.141 75.168 160.23 77.8242 160.23C80.1094 160.23 80.9883 161.988 80.9883 163.141C80.9883 164.488 80.4609 165.855 79.2305 165.855C78 165.855 77.4727 164.879 77.4727 163.531C77.2969 163.336 77.4727 162.75 77.4727 162.359C76.7695 162.359 75.1875 162.945 75.1875 165.66C75.1875 167.984 77.1211 169.742 79.2305 169.742C81.5156 169.742 83.9961 168.375 83.9961 163.727C83.9961 159.254 82.2383 154.41 74.4844 154.41C72.0234 154.41 65.1484 156.344 65.1484 164.898C65.1484 169.176 67.082 170.133 68.4883 170.133C69.7187 170.133 70.7734 169.352 70.7734 168.004C70.7734 167.027 70.2461 166.266 69.543 166.07C69.543 166.852 69.0156 167.613 68.4883 167.613C67.7852 167.613 67.2578 166.637 67.2578 165.875C67.2578 165.094 67.7852 163.941 69.1914 163.941C70.2461 163.941 72.1797 164.918 72.1797 167.438C72.1797 170.543 70.2461 171.52 68.4688 171.52C66.3594 171.52 64.4258 170.152 63.8008 167.047H63.625C63 170.152 61.0664 171.52 58.7812 171.52C57.1992 171.52 55.2656 170.543 55.2656 167.438C55.2656 164.918 57.1992 163.746 58.2539 163.746C59.6602 163.746 60.1875 165.113 60.1875 165.875C60.1875 166.656 59.6602 167.613 58.957 167.613C58.2539 167.613 57.9023 166.832 57.9023 166.07C57.1992 166.266 56.6719 167.047 56.6719 167.809C56.6719 169.371 57.5508 170.133 58.7812 170.133C60.3633 170.133 62.2969 169.156 62.2969 164.898C62.2969 156.363 55.4219 154.41 52.7852 154.41C45.207 154.41 43.4492 159.273 43.4492 163.531C43.4492 168.395 45.9102 169.742 48.2148 169.742C50.3242 169.742 52.2578 167.984 52.2578 165.66C52.2578 162.945 50.5 162.359 49.7969 162.359C49.9727 162.75 49.9727 163.141 49.9727 163.531C49.9727 164.898 49.4453 165.855 48.2148 165.855C46.8086 165.855 46.457 164.488 46.457 163.141C46.457 161.969 47.3359 160.23 49.6211 160.23C52.2578 160.23 53.8594 163.141 53.8594 165.66C53.8594 167.418 52.2773 171.285 48.0391 171.285C42.9219 171.285 41.8672 165.66 41.8672 163.902C41.8672 162.145 42.043 160.602 42.5703 159.039L42.3945 158.844C38.1758 163.316 33.2344 171.461 26.5352 171.461C20.3633 171.461 19.6602 165.836 19.6602 164.273C19.6602 162.34 20.3633 157.867 25.4805 157.867C27.7656 157.867 29.543 159.82 29.543 161.949C29.543 164.273 28.1367 165.25 27.082 165.25C26.0273 165.25 24.9727 164.469 24.9727 163.121C24.9727 161.559 25.6758 161.363 26.0273 161.168C25.8516 160.582 25.3242 160.191 24.7969 160.191C23.918 160.191 21.457 160.387 21.457 164.273C21.457 167.77 23.7422 169.703 26.5742 169.703C31.1641 169.703 34.1523 166.207 42.4336 156.5L42.2578 156.305C41.0273 156.891 39.4453 157.477 38.3711 157.477C35.5586 157.477 32.1992 155.523 32.1992 150.094C32.1992 144.859 35.3633 142.711 38.3711 142.711C41.7109 142.711 43.6641 145.621 43.6641 147.75C43.6641 149.879 42.6094 151.051 41.0273 151.051C39.6211 151.051 39.0938 149.879 39.0938 148.922C39.0938 147.945 39.4453 146.598 41.2031 146.793C40.8516 145.816 40.1484 144.664 38.3906 144.664C36.1055 144.664 33.8008 146.598 33.8008 150.094C33.8008 153.785 35.9102 155.719 38.3906 155.719C39.2695 155.719 40.8516 155.328 42.6289 154.547C44.5625 153.766 49.6797 152.223 52.8438 152.223C56.1836 152.223 62.0039 154.547 63.7617 161.148H63.8594C65.5391 154.547 71.3398 152.418 74.5234 152.418C77.8633 152.418 82.9805 153.785 84.9141 154.547C86.6719 155.328 88.2539 155.719 89.1523 155.719C91.6133 155.719 93.7422 153.785 93.7422 150.094C93.7422 146.598 91.457 144.664 88.9766 144.664C87.3945 144.664 86.6914 145.836 86.3398 146.793C88.0977 146.598 88.4492 147.965 88.4492 148.922C88.4492 149.898 87.9219 151.051 86.5156 151.051C84.9336 151.051 83.8789 149.879 83.8789 147.75C83.8789 145.621 85.8125 142.711 88.9961 142.711C92.1602 142.711 95.3437 144.84 95.3437 150.094C95.3437 155.523 91.8281 157.477 88.9961 157.477C88.1172 157.477 86.5352 156.891 85.1289 156.305L84.9531 156.5C93.4102 166.207 96.3984 169.703 100.988 169.703C103.801 169.703 106.105 167.77 106.105 164.273C106.105 160.387 103.645 160.191 102.766 160.191C102.238 160.191 101.711 160.582 101.535 161.168C101.711 161.363 102.59 161.559 102.59 163.121C102.59 164.664 101.535 165.25 100.48 165.25C99.4258 165.25 98.0195 164.273 98.0195 161.949C98.0195 159.82 99.7773 157.867 101.887 157.867C107.18 157.867 107.883 162.34 107.883 164.273C107.785 165.836 106.906 171.461 100.734 171.461ZM116.418 154.449L113.449 151.187L110.48 154.43L113.449 157.691L110.461 160.973L107.473 157.672L110.441 154.41L107.473 151.168L104.504 154.43L101.516 151.129L104.504 147.828L107.473 151.09L110.441 147.789L107.473 144.527L110.461 141.266L113.449 144.566L110.48 147.828L113.449 151.129L116.418 147.867L119.406 151.168L116.418 154.449ZM116.418 38.4141L113.449 35.1523L110.48 38.3945L113.449 41.6562L110.461 44.957L107.473 41.6562L110.441 38.3945L107.473 35.1523L104.504 38.4141L101.516 35.1133L104.504 31.8125L107.473 35.0742L110.441 31.7734L107.473 28.5117L110.461 25.25L113.449 28.5508L110.48 31.8125L113.449 35.1133L116.418 31.8516L119.406 35.1523L116.418 38.4141ZM101.73 47.8086C101.223 47.457 101.105 47.457 100.812 47.9453C100.402 48.6484 100.109 49.5078 100.109 50.4062C100.109 51.8906 100.93 53.1211 101.77 53.7656C102.238 54.1172 102.297 54.0391 102.59 53.6875C103.098 53.0234 103.508 51.7734 103.508 51.0898V51.0508C103.508 49.5859 102.531 48.375 101.73 47.8086ZM37.7266 123.492L37.9023 123.688C45.5 122.535 50.1484 119.156 53.8203 115.113C59.0742 109.43 61.5937 102.496 62.1211 96.9883L61.9453 96.793L37.7266 123.492ZM101.789 131.852C100.93 132.516 100.129 133.727 100.129 135.211C100.129 136.109 100.422 136.988 100.832 137.672C101.105 138.16 101.242 138.16 101.75 137.809C102.57 137.262 103.547 136.031 103.547 134.547V134.508C103.547 133.824 103.137 132.574 102.629 131.91C102.316 131.559 102.258 131.5 101.789 131.852ZM67.707 93.1406L67.8828 93.3359V93.1406H67.707ZM68.9375 118.59L64.2109 112.809L59.0547 118.004L64.2109 123.688L68.9375 118.59ZM86.5937 97.9648L91.75 92.75L86.5937 87.5547L81.8672 92.75L86.5937 97.9648ZM59.0547 67.5156L63.6836 73.2969L68.9375 67.5156L63.6836 62.418L59.0547 67.5156ZM24.8555 53.7852C25.7148 53.1211 26.5156 51.9102 26.5156 50.4258C26.5156 49.5273 26.2227 48.6484 25.832 47.9648C25.5586 47.4766 25.4219 47.4766 24.9141 47.8281C24.0938 48.375 23.1172 49.6055 23.1172 51.0898V51.1289C23.1172 51.8125 23.5273 53.0625 24.0352 53.7266C24.3281 54.0586 24.3867 54.1367 24.8555 53.7852ZM26.418 137.809C26.9258 138.16 27.043 138.16 27.3359 137.672C27.7461 136.969 28.0391 136.109 28.0391 135.211C28.0391 133.727 27.2188 132.496 26.3789 131.852C25.9102 131.5 25.8516 131.578 25.5586 131.93C25.0508 132.594 24.6406 133.844 24.6406 134.527V134.566C24.6406 136.031 25.5977 137.262 26.418 137.809ZM65.793 97.0078C66.3203 102.496 68.9375 109.43 74.0937 115.133C77.7656 119.176 81.8672 122.555 90.0117 123.707L90.1875 123.512L65.9688 96.832L65.793 97.0078ZM67.3555 95.2695L92.1016 121.949L92.2773 121.754C91.2227 112.789 87.6484 108.258 83.9766 104.215C79.25 98.5312 72.5117 95.6406 67.5313 95.0547L67.3555 95.2695ZM37.9023 62.418L37.7266 62.6133L61.9453 89.293L62.1211 89.0977C61.0664 83.6094 59.0547 76.6758 53.8203 70.9922C50.1289 66.9492 45.5 63.5703 37.9023 62.418ZM90.1875 62.6133L90.0117 62.418C81.8867 63.5703 77.7656 66.9492 74.0937 70.9922C68.9375 76.6758 66.3008 83.6094 65.793 89.0977L65.9688 89.293L90.1875 62.6133ZM92.1016 64.1367L67.3555 90.8359L67.5313 91.0312C72.5117 90.4453 78.8203 87.5547 83.9766 81.8711C87.6484 77.8281 90.7148 73.2969 92.2773 64.332L92.1016 64.1367Z" fill="black"/>
</svg>
